<svg width="25" height="20" viewBox="0 0 25 20" fill="none" xmlns="http://www.w3.org/2000/svg">
<path d="M1 4.21714e-05C0.734784 4.21714e-05 0.48043 0.105399 0.292893 0.292936C0.105357 0.480472 0 0.734826 0 1.00004C0 1.26526 0.105357 1.51961 0.292893 1.70715C0.48043 1.89469 0.734784 2.00004 1 2.00004H3.22L5.844 12.5C6.067 13.39 6.864 14 7.781 14H20.251C21.154 14 21.921 13.4 22.158 12.53L24.75 3.00004H22.656L20.25 12H7.78L5.157 1.50004C5.04865 1.06927 4.79888 0.68732 4.44768 0.415356C4.09648 0.143391 3.66418 -0.00285293 3.22 4.21714e-05H1ZM19 14C17.355 14 16 15.355 16 17C16 18.645 17.355 20 19 20C20.645 20 22 18.645 22 17C22 15.355 20.645 14 19 14ZM10 14C8.355 14 7 15.355 7 17C7 18.645 8.355 20 10 20C11.645 20 13 18.645 13 17C13 15.355 11.645 14 10 14ZM13 4.21714e-05V5.00004H10L14 9.00004L18 5.00004H15V4.21714e-05H13ZM10 16C10.564 16 11 16.436 11 17C11 17.564 10.564 18 10 18C9.436 18 9 17.564 9 17C9 16.436 9.436 16 10 16ZM19 16C19.564 16 20 16.436 20 17C20 17.564 19.564 18 19 18C18.436 18 18 17.564 18 17C18 16.436 18.436 16 19 16Z" fill="#F8F8F8"/>
</svg>
